<?xml version="1.0" encoding="UTF-8"?>
<!DOCTYPE svg PUBLIC "-//W3C//DTD SVG 1.1//EN" "http://www.w3.org/Graphics/SVG/1.1/DTD/svg11.dtd">
<svg width="283mm" height="134mm" viewBox="0 0 28300 13400" version="1.1" xmlns="http://www.w3.org/2000/svg" stroke-width="28.222" stroke-linejoin="round" xml:space="preserve">
 <path fill="rgb(255,255,255)" stroke="none" d="M 14156,13416 L 0,13416 0,-10 28311,-10 28311,13416 14156,13416 Z"/>
 <path fill="none" stroke="rgb(179,179,179)" stroke-linejoin="round" d="M 14462,10882 L 2319,10882 2319,2385 26605,2385 26605,10882 14462,10882 Z"/>
 <path fill="none" stroke="rgb(179,179,179)" stroke-linejoin="round" d="M 26605,10881 L 2319,10881"/>
 <path fill="none" stroke="rgb(179,179,179)" stroke-linejoin="round" d="M 26605,9667 L 2319,9667"/>
 <path fill="none" stroke="rgb(179,179,179)" stroke-linejoin="round" d="M 26605,8453 L 2319,8453"/>
 <path fill="none" stroke="rgb(179,179,179)" stroke-linejoin="round" d="M 26605,7239 L 2319,7239"/>
 <path fill="none" stroke="rgb(179,179,179)" stroke-linejoin="round" d="M 26605,6026 L 2319,6026"/>
 <path fill="none" stroke="rgb(179,179,179)" stroke-linejoin="round" d="M 26605,4812 L 2319,4812"/>
 <path fill="none" stroke="rgb(179,179,179)" stroke-linejoin="round" d="M 26605,3598 L 2319,3598"/>
 <path fill="none" stroke="rgb(179,179,179)" stroke-linejoin="round" d="M 26605,2384 L 2319,2384"/>
 <path fill="none" stroke="rgb(179,179,179)" stroke-linejoin="round" d="M 2319,11031 L 2319,10881"/>
 <path fill="none" stroke="rgb(179,179,179)" stroke-linejoin="round" d="M 2319,11031 L 2319,10881"/>
 <path fill="none" stroke="rgb(179,179,179)" stroke-linejoin="round" d="M 2730,11031 L 2730,10881"/>
 <path fill="none" stroke="rgb(179,179,179)" stroke-linejoin="round" d="M 2730,11031 L 2730,10881"/>
 <path fill="none" stroke="rgb(179,179,179)" stroke-linejoin="round" d="M 3142,11031 L 3142,10881"/>
 <path fill="none" stroke="rgb(179,179,179)" stroke-linejoin="round" d="M 3142,11031 L 3142,10881"/>
 <path fill="none" stroke="rgb(179,179,179)" stroke-linejoin="round" d="M 3553,11031 L 3553,10881"/>
 <path fill="none" stroke="rgb(179,179,179)" stroke-linejoin="round" d="M 3553,11031 L 3553,10881"/>
 <path fill="none" stroke="rgb(179,179,179)" stroke-linejoin="round" d="M 3965,11031 L 3965,10881"/>
 <path fill="none" stroke="rgb(179,179,179)" stroke-linejoin="round" d="M 3965,11031 L 3965,10881"/>
 <path fill="none" stroke="rgb(179,179,179)" stroke-linejoin="round" d="M 4377,11031 L 4377,10881"/>
 <path fill="none" stroke="rgb(179,179,179)" stroke-linejoin="round" d="M 4377,11031 L 4377,10881"/>
 <path fill="none" stroke="rgb(179,179,179)" stroke-linejoin="round" d="M 4788,11031 L 4788,10881"/>
 <path fill="none" stroke="rgb(179,179,179)" stroke-linejoin="round" d="M 4788,11031 L 4788,10881"/>
 <path fill="none" stroke="rgb(179,179,179)" stroke-linejoin="round" d="M 5200,11031 L 5200,10881"/>
 <path fill="none" stroke="rgb(179,179,179)" stroke-linejoin="round" d="M 5200,11031 L 5200,10881"/>
 <path fill="none" stroke="rgb(179,179,179)" stroke-linejoin="round" d="M 5612,11031 L 5612,10881"/>
 <path fill="none" stroke="rgb(179,179,179)" stroke-linejoin="round" d="M 5612,11031 L 5612,10881"/>
 <path fill="none" stroke="rgb(179,179,179)" stroke-linejoin="round" d="M 6023,11031 L 6023,10881"/>
 <path fill="none" stroke="rgb(179,179,179)" stroke-linejoin="round" d="M 6023,11031 L 6023,10881"/>
 <path fill="none" stroke="rgb(179,179,179)" stroke-linejoin="round" d="M 6435,11031 L 6435,10881"/>
 <path fill="none" stroke="rgb(179,179,179)" stroke-linejoin="round" d="M 6435,11031 L 6435,10881"/>
 <path fill="none" stroke="rgb(179,179,179)" stroke-linejoin="round" d="M 6847,11031 L 6847,10881"/>
 <path fill="none" stroke="rgb(179,179,179)" stroke-linejoin="round" d="M 6847,11031 L 6847,10881"/>
 <path fill="none" stroke="rgb(179,179,179)" stroke-linejoin="round" d="M 7258,11031 L 7258,10881"/>
 <path fill="none" stroke="rgb(179,179,179)" stroke-linejoin="round" d="M 7258,11031 L 7258,10881"/>
 <path fill="none" stroke="rgb(179,179,179)" stroke-linejoin="round" d="M 7670,11031 L 7670,10881"/>
 <path fill="none" stroke="rgb(179,179,179)" stroke-linejoin="round" d="M 7670,11031 L 7670,10881"/>
 <path fill="none" stroke="rgb(179,179,179)" stroke-linejoin="round" d="M 8082,11031 L 8082,10881"/>
 <path fill="none" stroke="rgb(179,179,179)" stroke-linejoin="round" d="M 8082,11031 L 8082,10881"/>
 <path fill="none" stroke="rgb(179,179,179)" stroke-linejoin="round" d="M 8493,11031 L 8493,10881"/>
 <path fill="none" stroke="rgb(179,179,179)" stroke-linejoin="round" d="M 8493,11031 L 8493,10881"/>
 <path fill="none" stroke="rgb(179,179,179)" stroke-linejoin="round" d="M 8905,11031 L 8905,10881"/>
 <path fill="none" stroke="rgb(179,179,179)" stroke-linejoin="round" d="M 8905,11031 L 8905,10881"/>
 <path fill="none" stroke="rgb(179,179,179)" stroke-linejoin="round" d="M 9316,11031 L 9316,10881"/>
 <path fill="none" stroke="rgb(179,179,179)" stroke-linejoin="round" d="M 9316,11031 L 9316,10881"/>
 <path fill="none" stroke="rgb(179,179,179)" stroke-linejoin="round" d="M 9728,11031 L 9728,10881"/>
 <path fill="none" stroke="rgb(179,179,179)" stroke-linejoin="round" d="M 9728,11031 L 9728,10881"/>
 <path fill="none" stroke="rgb(179,179,179)" stroke-linejoin="round" d="M 10140,11031 L 10140,10881"/>
 <path fill="none" stroke="rgb(179,179,179)" stroke-linejoin="round" d="M 10140,11031 L 10140,10881"/>
 <path fill="none" stroke="rgb(179,179,179)" stroke-linejoin="round" d="M 10551,11031 L 10551,10881"/>
 <path fill="none" stroke="rgb(179,179,179)" stroke-linejoin="round" d="M 10551,11031 L 10551,10881"/>
 <path fill="none" stroke="rgb(179,179,179)" stroke-linejoin="round" d="M 10963,11031 L 10963,10881"/>
 <path fill="none" stroke="rgb(179,179,179)" stroke-linejoin="round" d="M 10963,11031 L 10963,10881"/>
 <path fill="none" stroke="rgb(179,179,179)" stroke-linejoin="round" d="M 11375,11031 L 11375,10881"/>
 <path fill="none" stroke="rgb(179,179,179)" stroke-linejoin="round" d="M 11375,11031 L 11375,10881"/>
 <path fill="none" stroke="rgb(179,179,179)" stroke-linejoin="round" d="M 11786,11031 L 11786,10881"/>
 <path fill="none" stroke="rgb(179,179,179)" stroke-linejoin="round" d="M 11786,11031 L 11786,10881"/>
 <path fill="none" stroke="rgb(179,179,179)" stroke-linejoin="round" d="M 12198,11031 L 12198,10881"/>
 <path fill="none" stroke="rgb(179,179,179)" stroke-linejoin="round" d="M 12198,11031 L 12198,10881"/>
 <path fill="none" stroke="rgb(179,179,179)" stroke-linejoin="round" d="M 12610,11031 L 12610,10881"/>
 <path fill="none" stroke="rgb(179,179,179)" stroke-linejoin="round" d="M 12610,11031 L 12610,10881"/>
 <path fill="none" stroke="rgb(179,179,179)" stroke-linejoin="round" d="M 13021,11031 L 13021,10881"/>
 <path fill="none" stroke="rgb(179,179,179)" stroke-linejoin="round" d="M 13021,11031 L 13021,10881"/>
 <path fill="none" stroke="rgb(179,179,179)" stroke-linejoin="round" d="M 13433,11031 L 13433,10881"/>
 <path fill="none" stroke="rgb(179,179,179)" stroke-linejoin="round" d="M 13433,11031 L 13433,10881"/>
 <path fill="none" stroke="rgb(179,179,179)" stroke-linejoin="round" d="M 13845,11031 L 13845,10881"/>
 <path fill="none" stroke="rgb(179,179,179)" stroke-linejoin="round" d="M 13845,11031 L 13845,10881"/>
 <path fill="none" stroke="rgb(179,179,179)" stroke-linejoin="round" d="M 14255,11031 L 14255,10881"/>
 <path fill="none" stroke="rgb(179,179,179)" stroke-linejoin="round" d="M 14255,11031 L 14255,10881"/>
 <path fill="none" stroke="rgb(179,179,179)" stroke-linejoin="round" d="M 14667,11031 L 14667,10881"/>
 <path fill="none" stroke="rgb(179,179,179)" stroke-linejoin="round" d="M 14667,11031 L 14667,10881"/>
 <path fill="none" stroke="rgb(179,179,179)" stroke-linejoin="round" d="M 15078,11031 L 15078,10881"/>
 <path fill="none" stroke="rgb(179,179,179)" stroke-linejoin="round" d="M 15078,11031 L 15078,10881"/>
 <path fill="none" stroke="rgb(179,179,179)" stroke-linejoin="round" d="M 15490,11031 L 15490,10881"/>
 <path fill="none" stroke="rgb(179,179,179)" stroke-linejoin="round" d="M 15490,11031 L 15490,10881"/>
 <path fill="none" stroke="rgb(179,179,179)" stroke-linejoin="round" d="M 15902,11031 L 15902,10881"/>
 <path fill="none" stroke="rgb(179,179,179)" stroke-linejoin="round" d="M 15902,11031 L 15902,10881"/>
 <path fill="none" stroke="rgb(179,179,179)" stroke-linejoin="round" d="M 16313,11031 L 16313,10881"/>
 <path fill="none" stroke="rgb(179,179,179)" stroke-linejoin="round" d="M 16313,11031 L 16313,10881"/>
 <path fill="none" stroke="rgb(179,179,179)" stroke-linejoin="round" d="M 16725,11031 L 16725,10881"/>
 <path fill="none" stroke="rgb(179,179,179)" stroke-linejoin="round" d="M 16725,11031 L 16725,10881"/>
 <path fill="none" stroke="rgb(179,179,179)" stroke-linejoin="round" d="M 17137,11031 L 17137,10881"/>
 <path fill="none" stroke="rgb(179,179,179)" stroke-linejoin="round" d="M 17137,11031 L 17137,10881"/>
 <path fill="none" stroke="rgb(179,179,179)" stroke-linejoin="round" d="M 17548,11031 L 17548,10881"/>
 <path fill="none" stroke="rgb(179,179,179)" stroke-linejoin="round" d="M 17548,11031 L 17548,10881"/>
 <path fill="none" stroke="rgb(179,179,179)" stroke-linejoin="round" d="M 17960,11031 L 17960,10881"/>
 <path fill="none" stroke="rgb(179,179,179)" stroke-linejoin="round" d="M 17960,11031 L 17960,10881"/>
 <path fill="none" stroke="rgb(179,179,179)" stroke-linejoin="round" d="M 18372,11031 L 18372,10881"/>
 <path fill="none" stroke="rgb(179,179,179)" stroke-linejoin="round" d="M 18372,11031 L 18372,10881"/>
 <path fill="none" stroke="rgb(179,179,179)" stroke-linejoin="round" d="M 18783,11031 L 18783,10881"/>
 <path fill="none" stroke="rgb(179,179,179)" stroke-linejoin="round" d="M 18783,11031 L 18783,10881"/>
 <path fill="none" stroke="rgb(179,179,179)" stroke-linejoin="round" d="M 19195,11031 L 19195,10881"/>
 <path fill="none" stroke="rgb(179,179,179)" stroke-linejoin="round" d="M 19195,11031 L 19195,10881"/>
 <path fill="none" stroke="rgb(179,179,179)" stroke-linejoin="round" d="M 19607,11031 L 19607,10881"/>
 <path fill="none" stroke="rgb(179,179,179)" stroke-linejoin="round" d="M 19607,11031 L 19607,10881"/>
 <path fill="none" stroke="rgb(179,179,179)" stroke-linejoin="round" d="M 20018,11031 L 20018,10881"/>
 <path fill="none" stroke="rgb(179,179,179)" stroke-linejoin="round" d="M 20018,11031 L 20018,10881"/>
 <path fill="none" stroke="rgb(179,179,179)" stroke-linejoin="round" d="M 20430,11031 L 20430,10881"/>
 <path fill="none" stroke="rgb(179,179,179)" stroke-linejoin="round" d="M 20430,11031 L 20430,10881"/>
 <path fill="none" stroke="rgb(179,179,179)" stroke-linejoin="round" d="M 20841,11031 L 20841,10881"/>
 <path fill="none" stroke="rgb(179,179,179)" stroke-linejoin="round" d="M 20841,11031 L 20841,10881"/>
 <path fill="none" stroke="rgb(179,179,179)" stroke-linejoin="round" d="M 21253,11031 L 21253,10881"/>
 <path fill="none" stroke="rgb(179,179,179)" stroke-linejoin="round" d="M 21253,11031 L 21253,10881"/>
 <path fill="none" stroke="rgb(179,179,179)" stroke-linejoin="round" d="M 21665,11031 L 21665,10881"/>
 <path fill="none" stroke="rgb(179,179,179)" stroke-linejoin="round" d="M 21665,11031 L 21665,10881"/>
 <path fill="none" stroke="rgb(179,179,179)" stroke-linejoin="round" d="M 22076,11031 L 22076,10881"/>
 <path fill="none" stroke="rgb(179,179,179)" stroke-linejoin="round" d="M 22076,11031 L 22076,10881"/>
 <path fill="none" stroke="rgb(179,179,179)" stroke-linejoin="round" d="M 22488,11031 L 22488,10881"/>
 <path fill="none" stroke="rgb(179,179,179)" stroke-linejoin="round" d="M 22488,11031 L 22488,10881"/>
 <path fill="none" stroke="rgb(179,179,179)" stroke-linejoin="round" d="M 22900,11031 L 22900,10881"/>
 <path fill="none" stroke="rgb(179,179,179)" stroke-linejoin="round" d="M 22900,11031 L 22900,10881"/>
 <path fill="none" stroke="rgb(179,179,179)" stroke-linejoin="round" d="M 23311,11031 L 23311,10881"/>
 <path fill="none" stroke="rgb(179,179,179)" stroke-linejoin="round" d="M 23311,11031 L 23311,10881"/>
 <path fill="none" stroke="rgb(179,179,179)" stroke-linejoin="round" d="M 23723,11031 L 23723,10881"/>
 <path fill="none" stroke="rgb(179,179,179)" stroke-linejoin="round" d="M 23723,11031 L 23723,10881"/>
 <path fill="none" stroke="rgb(179,179,179)" stroke-linejoin="round" d="M 24135,11031 L 24135,10881"/>
 <path fill="none" stroke="rgb(179,179,179)" stroke-linejoin="round" d="M 24135,11031 L 24135,10881"/>
 <path fill="none" stroke="rgb(179,179,179)" stroke-linejoin="round" d="M 24546,11031 L 24546,10881"/>
 <path fill="none" stroke="rgb(179,179,179)" stroke-linejoin="round" d="M 24546,11031 L 24546,10881"/>
 <path fill="none" stroke="rgb(179,179,179)" stroke-linejoin="round" d="M 24958,11031 L 24958,10881"/>
 <path fill="none" stroke="rgb(179,179,179)" stroke-linejoin="round" d="M 24958,11031 L 24958,10881"/>
 <path fill="none" stroke="rgb(179,179,179)" stroke-linejoin="round" d="M 25370,11031 L 25370,10881"/>
 <path fill="none" stroke="rgb(179,179,179)" stroke-linejoin="round" d="M 25370,11031 L 25370,10881"/>
 <path fill="none" stroke="rgb(179,179,179)" stroke-linejoin="round" d="M 25781,11031 L 25781,10881"/>
 <path fill="none" stroke="rgb(179,179,179)" stroke-linejoin="round" d="M 25781,11031 L 25781,10881"/>
 <path fill="none" stroke="rgb(179,179,179)" stroke-linejoin="round" d="M 26193,11031 L 26193,10881"/>
 <path fill="none" stroke="rgb(179,179,179)" stroke-linejoin="round" d="M 26193,11031 L 26193,10881"/>
 <path fill="none" stroke="rgb(179,179,179)" stroke-linejoin="round" d="M 26605,11031 L 26605,10881"/>
 <path fill="none" stroke="rgb(179,179,179)" stroke-linejoin="round" d="M 26605,11031 L 26605,10881"/>
 <path fill="none" stroke="rgb(179,179,179)" stroke-linejoin="round" d="M 2319,10881 L 26605,10881"/>
 <path fill="none" stroke="rgb(179,179,179)" stroke-linejoin="round" d="M 2169,10881 L 2319,10881"/>
 <path fill="none" stroke="rgb(179,179,179)" stroke-linejoin="round" d="M 2169,10881 L 2319,10881"/>
 <path fill="none" stroke="rgb(179,179,179)" stroke-linejoin="round" d="M 2169,9667 L 2319,9667"/>
 <path fill="none" stroke="rgb(179,179,179)" stroke-linejoin="round" d="M 2169,9667 L 2319,9667"/>
 <path fill="none" stroke="rgb(179,179,179)" stroke-linejoin="round" d="M 2169,8453 L 2319,8453"/>
 <path fill="none" stroke="rgb(179,179,179)" stroke-linejoin="round" d="M 2169,8453 L 2319,8453"/>
 <path fill="none" stroke="rgb(179,179,179)" stroke-linejoin="round" d="M 2169,7239 L 2319,7239"/>
 <path fill="none" stroke="rgb(179,179,179)" stroke-linejoin="round" d="M 2169,7239 L 2319,7239"/>
 <path fill="none" stroke="rgb(179,179,179)" stroke-linejoin="round" d="M 2169,6026 L 2319,6026"/>
 <path fill="none" stroke="rgb(179,179,179)" stroke-linejoin="round" d="M 2169,6026 L 2319,6026"/>
 <path fill="none" stroke="rgb(179,179,179)" stroke-linejoin="round" d="M 2169,4812 L 2319,4812"/>
 <path fill="none" stroke="rgb(179,179,179)" stroke-linejoin="round" d="M 2169,4812 L 2319,4812"/>
 <path fill="none" stroke="rgb(179,179,179)" stroke-linejoin="round" d="M 2169,3598 L 2319,3598"/>
 <path fill="none" stroke="rgb(179,179,179)" stroke-linejoin="round" d="M 2169,3598 L 2319,3598"/>
 <path fill="none" stroke="rgb(179,179,179)" stroke-linejoin="round" d="M 2169,2384 L 2319,2384"/>
 <path fill="none" stroke="rgb(179,179,179)" stroke-linejoin="round" d="M 2169,2384 L 2319,2384"/>
 <path fill="none" stroke="rgb(179,179,179)" stroke-linejoin="round" d="M 2319,10881 L 2319,2384"/>
 <path fill="none" stroke="rgb(179,179,179)" stroke-linejoin="round" d="M 26755,10881 L 26605,10881"/>
 <path fill="none" stroke="rgb(179,179,179)" stroke-linejoin="round" d="M 26755,10881 L 26605,10881"/>
 <path fill="none" stroke="rgb(179,179,179)" stroke-linejoin="round" d="M 26755,9667 L 26605,9667"/>
 <path fill="none" stroke="rgb(179,179,179)" stroke-linejoin="round" d="M 26755,9667 L 26605,9667"/>
 <path fill="none" stroke="rgb(179,179,179)" stroke-linejoin="round" d="M 26755,8453 L 26605,8453"/>
 <path fill="none" stroke="rgb(179,179,179)" stroke-linejoin="round" d="M 26755,8453 L 26605,8453"/>
 <path fill="none" stroke="rgb(179,179,179)" stroke-linejoin="round" d="M 26755,7239 L 26605,7239"/>
 <path fill="none" stroke="rgb(179,179,179)" stroke-linejoin="round" d="M 26755,7239 L 26605,7239"/>
 <path fill="none" stroke="rgb(179,179,179)" stroke-linejoin="round" d="M 26755,6026 L 26605,6026"/>
 <path fill="none" stroke="rgb(179,179,179)" stroke-linejoin="round" d="M 26755,6026 L 26605,6026"/>
 <path fill="none" stroke="rgb(179,179,179)" stroke-linejoin="round" d="M 26755,4812 L 26605,4812"/>
 <path fill="none" stroke="rgb(179,179,179)" stroke-linejoin="round" d="M 26755,4812 L 26605,4812"/>
 <path fill="none" stroke="rgb(179,179,179)" stroke-linejoin="round" d="M 26755,3598 L 26605,3598"/>
 <path fill="none" stroke="rgb(179,179,179)" stroke-linejoin="round" d="M 26755,3598 L 26605,3598"/>
 <path fill="none" stroke="rgb(179,179,179)" stroke-linejoin="round" d="M 26755,2384 L 26605,2384"/>
 <path fill="none" stroke="rgb(179,179,179)" stroke-linejoin="round" d="M 26755,2384 L 26605,2384"/>
 <path fill="none" stroke="rgb(179,179,179)" stroke-linejoin="round" d="M 26605,10881 L 26605,2384"/>
 <path fill="none" stroke="rgb(255,66,14)" stroke-width="80" stroke-linejoin="round" d="M 2319,9424 L 2360,9440 2401,9457 2442,9475 2483,9494 2524,9516 2565,9539 2607,9566 2648,9595 2689,9629 2730,9667 2771,9709 2812,9754 2854,9802 2895,9851 2936,9899 2977,9946 3018,9990 3059,10030 3101,10064 3142,10091 3183,10111 3224,10124 3265,10131 3306,10133 3348,10131 3389,10125 3430,10118 3471,10109 3512,10100 3553,10091 3595,10085 3636,10080 3677,10076 3718,10074 3759,10074 3800,10075 3842,10077 3883,10081 3924,10085 3965,10091 4006,10098 4047,10106 4089,10113 4130,10119 4171,10123 4212,10125 4253,10123 4294,10117 4336,10107 4377,10091 4418,10070 4459,10044 4500,10016 4541,9987 4583,9960 4624,9936 4665,9917 4706,9905 4747,9902 4788,9909 4830,9929 4871,9957 4912,9993 4953,10031 4994,10069 5035,10105 5077,10134 5118,10153 5159,10161 5200,10152 5241,10126 5282,10083 5324,10026 5365,9957 5406,9878 5447,9793 5488,9702 5529,9609 5570,9515 5612,9424 5653,9336 5694,9253 5735,9173 5776,9097 5817,9023 5859,8953 5900,8886 5941,8820 5982,8757 6023,8695 6064,8635 6106,8576 6147,8517 6188,8459 6229,8400 6270,8341 6311,8280 6353,8218 6394,8155 6435,8088 6476,8019 6517,7948 6558,7876 6600,7802 6641,7727 6682,7652 6723,7577 6764,7503 6805,7431 6847,7360 6888,7292 6929,7227 6970,7169 7011,7118 7052,7075 7094,7044 7135,7024 7176,7019 7217,7029 7258,7056 7299,7102 7341,7165 7382,7242 7423,7332 7464,7433 7505,7543 7546,7659 7588,7780 7629,7904 7670,8028 7711,8150 7752,8271 7793,8388 7835,8502 7876,8611 7917,8715 7958,8812 7999,8903 8040,8985 8082,9060 8123,9124 8164,9175 8205,9210 8246,9225 8287,9217 8329,9181 8370,9114 8411,9014 8452,8875 8493,8695 8534,8473 8575,8213 8617,7926 8658,7619 8699,7301 8740,6981 8781,6667 8822,6367 8864,6090 8905,5843 8946,5635 8987,5466 9028,5334 9069,5238 9111,5177 9152,5150 9193,5156 9234,5193 9275,5261 9316,5358 9358,5482 9399,5629 9440,5792 9481,5967 9522,6148 9563,6328 9605,6503 9646,6666 9687,6811 9728,6935 9769,7032 9810,7103 9852,7151 9893,7179 9934,7189 9975,7183 10016,7164 10057,7135 10099,7098 10140,7056 10181,7011 10222,6962 10263,6910 10304,6853 10346,6791 10387,6724 10428,6652 10469,6572 10510,6485 10551,6390 10593,6286 10634,6175 10675,6054 10716,5924 10757,5784 10798,5635 10840,5475 10881,5305 10922,5125 10963,4933 11004,4731 11045,4523 11087,4315 11128,4114 11169,3924 11210,3752 11251,3603 11292,3483 11334,3399 11375,3355 11416,3355 11457,3397 11498,3475 11539,3583 11580,3716 11622,3868 11663,4036 11704,4211 11745,4391 11786,4569 11827,4741 11869,4908 11910,5073 11951,5239 11992,5408 12033,5583 12074,5765 12116,5959 12157,6166 12198,6390 12239,6630 12280,6881 12321,7137 12363,7390 12404,7633 12445,7859 12486,8062 12527,8233 12568,8365 12610,8453 12651,8490 12692,8483 12733,8440 12774,8370 12815,8281 12857,8181 12898,8079 12939,7984 12980,7903 13021,7846 13062,7817 13104,7816 13145,7838 13186,7878 13227,7933 13268,7998 13309,8068 13351,8140 13392,8209 13433,8270 13474,8322 13515,8362 13556,8394 13598,8417 13639,8434 13680,8445 13721,8451 13762,8453 13803,8453 13845,8453 13886,8451 13927,8450 13968,8447 14009,8444 14050,8440 14092,8434 14133,8427 14173,8418 14214,8406 14255,8392 14296,8375 14338,8356 14379,8336 14420,8315 14461,8294 14502,8273 14543,8254 14584,8236 14626,8221 14667,8210 14708,8202 14749,8197 14790,8194 14831,8192 14873,8190 14914,8187 14955,8183 14996,8175 15037,8165 15078,8149 15120,8128 15161,8103 15202,8074 15243,8042 15284,8008 15325,7974 15367,7939 15408,7906 15449,7874 15490,7846 15531,7821 15572,7801 15614,7786 15655,7778 15696,7777 15737,7783 15778,7799 15819,7824 15861,7860 15902,7906 15943,7964 15984,8032 16025,8107 16066,8187 16108,8269 16149,8352 16190,8432 16231,8507 16272,8576 16313,8635 16355,8682 16396,8720 16437,8749 16478,8772 16519,8791 16560,8806 16602,8821 16643,8836 16684,8855 16725,8877 16766,8906 16807,8939 16849,8975 16890,9013 16931,9051 16972,9087 17013,9119 17054,9147 17096,9168 17137,9181 17178,9185 17219,9180 17260,9169 17301,9154 17343,9136 17384,9116 17425,9097 17466,9080 17507,9067 17548,9060 17589,9059 17631,9065 17672,9076 17713,9093 17754,9113 17795,9136 17836,9161 17878,9188 17919,9215 17960,9242 18001,9267 18042,9291 18083,9314 18125,9335 18166,9355 18207,9372 18248,9388 18289,9402 18330,9414 18372,9424 18413,9431 18454,9437 18495,9442 18536,9446 18577,9450 18619,9454 18660,9459 18701,9465 18742,9474 18783,9484 18824,9498 18866,9513 18907,9530 18948,9547 18989,9563 19030,9578 19071,9591 19113,9600 19154,9606 19195,9606 19236,9600 19277,9590 19318,9576 19360,9557 19401,9537 19442,9515 19483,9491 19524,9468 19565,9445 19607,9424 19648,9405 19689,9388 19730,9373 19771,9359 19812,9347 19854,9337 19895,9327 19936,9318 19977,9310 20018,9302 20059,9295 20101,9289 20142,9286 20183,9286 20224,9290 20265,9301 20306,9318 20348,9344 20389,9379 20430,9424 20471,9480 20512,9544 20553,9614 20594,9687 20636,9761 20677,9831 20718,9896 20759,9953 20800,9999 20841,10031 20883,10047 20924,10048 20965,10036 21006,10015 21047,9985 21088,9949 21130,9909 21171,9868 21212,9827 21253,9788 21294,9753 21335,9723 21377,9696 21418,9671 21459,9649 21500,9628 21541,9608 21582,9587 21624,9567 21665,9545 21706,9522 21747,9497 21788,9473 21829,9449 21871,9426 21912,9406 21953,9389 21994,9375 22035,9366 22076,9363 22118,9365 22159,9373 22200,9384 22241,9399 22282,9415 22323,9432 22365,9449 22406,9464 22447,9476 22488,9484 22529,9488 22570,9489 22612,9486 22653,9482 22694,9478 22735,9474 22776,9471 22817,9472 22859,9476 22900,9484 22941,9499 22982,9519 23023,9544 23064,9575 23106,9610 23147,9650 23188,9694 23229,9742 23270,9794 23311,9849 23353,9907 23394,9966 23435,10025 23476,10081 23517,10134 23558,10180 23599,10220 23641,10249 23682,10268 23723,10274 23764,10265 23805,10244 23846,10211 23888,10170 23929,10123 23970,10070 24011,10014 24052,9957 24093,9901 24135,9849 24176,9800 24217,9757 24258,9719 24299,9686 24340,9659 24382,9637 24423,9621 24464,9610 24505,9605 24546,9606 24587,9613 24629,9624 24670,9640 24711,9659 24752,9681 24793,9703 24834,9726 24876,9749 24917,9769 24958,9788 24999,9803 25040,9815 25081,9825 25123,9832 25164,9838 25205,9842 25246,9844 25287,9846 25328,9847 25370,9849 25411,9850 25452,9851 25493,9851 25534,9850 25575,9847 25617,9842 25658,9834 25699,9823 25740,9808 25781,9788 25822,9764 25864,9736 25905,9706 25946,9675 25987,9644 26028,9615 26069,9590 26111,9569 26152,9553 26193,9545 26234,9545 26275,9553 26316,9567 26358,9588 26399,9613 26440,9643 26481,9676 26522,9712 26563,9750 26605,9788"/>
 <text class="TextShape" transform="translate(1849,11920) rotate(-44.9) translate(-1849,-11920)"><tspan class="TextParagraph" font-family="Liberation Sans, sans-serif" font-size="353px" font-weight="400"><tspan class="TextPosition" x="1849" y="11920"><tspan fill="rgb(0,0,0)" stroke="none">1958</tspan></tspan></tspan></text>
 <text class="TextShape" transform="translate(2672,11920) rotate(-44.9) translate(-2672,-11920)"><tspan class="TextParagraph" font-family="Liberation Sans, sans-serif" font-size="353px" font-weight="400"><tspan class="TextPosition" x="2672" y="11920"><tspan fill="rgb(0,0,0)" stroke="none">1960</tspan></tspan></tspan></text>
 <text class="TextShape" transform="translate(3495,11920) rotate(-44.9) translate(-3495,-11920)"><tspan class="TextParagraph" font-family="Liberation Sans, sans-serif" font-size="353px" font-weight="400"><tspan class="TextPosition" x="3495" y="11920"><tspan fill="rgb(0,0,0)" stroke="none">1962</tspan></tspan></tspan></text>
 <text class="TextShape" transform="translate(4318,11920) rotate(-44.9) translate(-4318,-11920)"><tspan class="TextParagraph" font-family="Liberation Sans, sans-serif" font-size="353px" font-weight="400"><tspan class="TextPosition" x="4318" y="11920"><tspan fill="rgb(0,0,0)" stroke="none">1964</tspan></tspan></tspan></text>
 <text class="TextShape" transform="translate(5142,11920) rotate(-44.9) translate(-5142,-11920)"><tspan class="TextParagraph" font-family="Liberation Sans, sans-serif" font-size="353px" font-weight="400"><tspan class="TextPosition" x="5142" y="11920"><tspan fill="rgb(0,0,0)" stroke="none">1966</tspan></tspan></tspan></text>
 <text class="TextShape" transform="translate(5965,11920) rotate(-44.9) translate(-5965,-11920)"><tspan class="TextParagraph" font-family="Liberation Sans, sans-serif" font-size="353px" font-weight="400"><tspan class="TextPosition" x="5965" y="11920"><tspan fill="rgb(0,0,0)" stroke="none">1968</tspan></tspan></tspan></text>
 <text class="TextShape" transform="translate(6788,11920) rotate(-44.9) translate(-6788,-11920)"><tspan class="TextParagraph" font-family="Liberation Sans, sans-serif" font-size="353px" font-weight="400"><tspan class="TextPosition" x="6788" y="11920"><tspan fill="rgb(0,0,0)" stroke="none">1970</tspan></tspan></tspan></text>
 <text class="TextShape" transform="translate(7612,11920) rotate(-44.9) translate(-7612,-11920)"><tspan class="TextParagraph" font-family="Liberation Sans, sans-serif" font-size="353px" font-weight="400"><tspan class="TextPosition" x="7612" y="11920"><tspan fill="rgb(0,0,0)" stroke="none">1972</tspan></tspan></tspan></text>
 <text class="TextShape" transform="translate(8435,11920) rotate(-44.9) translate(-8435,-11920)"><tspan class="TextParagraph" font-family="Liberation Sans, sans-serif" font-size="353px" font-weight="400"><tspan class="TextPosition" x="8435" y="11920"><tspan fill="rgb(0,0,0)" stroke="none">1974</tspan></tspan></tspan></text>
 <text class="TextShape" transform="translate(9258,11920) rotate(-44.9) translate(-9258,-11920)"><tspan class="TextParagraph" font-family="Liberation Sans, sans-serif" font-size="353px" font-weight="400"><tspan class="TextPosition" x="9258" y="11920"><tspan fill="rgb(0,0,0)" stroke="none">1976</tspan></tspan></tspan></text>
 <text class="TextShape" transform="translate(10081,11920) rotate(-44.9) translate(-10081,-11920)"><tspan class="TextParagraph" font-family="Liberation Sans, sans-serif" font-size="353px" font-weight="400"><tspan class="TextPosition" x="10081" y="11920"><tspan fill="rgb(0,0,0)" stroke="none">1978</tspan></tspan></tspan></text>
 <text class="TextShape" transform="translate(10905,11920) rotate(-44.9) translate(-10905,-11920)"><tspan class="TextParagraph" font-family="Liberation Sans, sans-serif" font-size="353px" font-weight="400"><tspan class="TextPosition" x="10905" y="11920"><tspan fill="rgb(0,0,0)" stroke="none">1980</tspan></tspan></tspan></text>
 <text class="TextShape" transform="translate(11728,11920) rotate(-44.9) translate(-11728,-11920)"><tspan class="TextParagraph" font-family="Liberation Sans, sans-serif" font-size="353px" font-weight="400"><tspan class="TextPosition" x="11728" y="11920"><tspan fill="rgb(0,0,0)" stroke="none">1982</tspan></tspan></tspan></text>
 <text class="TextShape" transform="translate(12551,11920) rotate(-44.9) translate(-12551,-11920)"><tspan class="TextParagraph" font-family="Liberation Sans, sans-serif" font-size="353px" font-weight="400"><tspan class="TextPosition" x="12551" y="11920"><tspan fill="rgb(0,0,0)" stroke="none">1984</tspan></tspan></tspan></text>
 <text class="TextShape" transform="translate(13375,11920) rotate(-44.9) translate(-13375,-11920)"><tspan class="TextParagraph" font-family="Liberation Sans, sans-serif" font-size="353px" font-weight="400"><tspan class="TextPosition" x="13375" y="11920"><tspan fill="rgb(0,0,0)" stroke="none">1986</tspan></tspan></tspan></text>
 <text class="TextShape" transform="translate(14198,11920) rotate(-44.9) translate(-14198,-11920)"><tspan class="TextParagraph" font-family="Liberation Sans, sans-serif" font-size="353px" font-weight="400"><tspan class="TextPosition" x="14198" y="11920"><tspan fill="rgb(0,0,0)" stroke="none">1988</tspan></tspan></tspan></text>
 <text class="TextShape" transform="translate(15021,11920) rotate(-44.9) translate(-15021,-11920)"><tspan class="TextParagraph" font-family="Liberation Sans, sans-serif" font-size="353px" font-weight="400"><tspan class="TextPosition" x="15021" y="11920"><tspan fill="rgb(0,0,0)" stroke="none">1990</tspan></tspan></tspan></text>
 <text class="TextShape" transform="translate(15844,11920) rotate(-44.9) translate(-15844,-11920)"><tspan class="TextParagraph" font-family="Liberation Sans, sans-serif" font-size="353px" font-weight="400"><tspan class="TextPosition" x="15844" y="11920"><tspan fill="rgb(0,0,0)" stroke="none">1992</tspan></tspan></tspan></text>
 <text class="TextShape" transform="translate(16668,11920) rotate(-44.9) translate(-16668,-11920)"><tspan class="TextParagraph" font-family="Liberation Sans, sans-serif" font-size="353px" font-weight="400"><tspan class="TextPosition" x="16668" y="11920"><tspan fill="rgb(0,0,0)" stroke="none">1994</tspan></tspan></tspan></text>
 <text class="TextShape" transform="translate(17491,11920) rotate(-44.9) translate(-17491,-11920)"><tspan class="TextParagraph" font-family="Liberation Sans, sans-serif" font-size="353px" font-weight="400"><tspan class="TextPosition" x="17491" y="11920"><tspan fill="rgb(0,0,0)" stroke="none">1996</tspan></tspan></tspan></text>
 <text class="TextShape" transform="translate(18314,11920) rotate(-44.9) translate(-18314,-11920)"><tspan class="TextParagraph" font-family="Liberation Sans, sans-serif" font-size="353px" font-weight="400"><tspan class="TextPosition" x="18314" y="11920"><tspan fill="rgb(0,0,0)" stroke="none">1998</tspan></tspan></tspan></text>
 <text class="TextShape" transform="translate(19137,11920) rotate(-44.9) translate(-19137,-11920)"><tspan class="TextParagraph" font-family="Liberation Sans, sans-serif" font-size="353px" font-weight="400"><tspan class="TextPosition" x="19137" y="11920"><tspan fill="rgb(0,0,0)" stroke="none">2000</tspan></tspan></tspan></text>
 <text class="TextShape" transform="translate(19960,11920) rotate(-44.9) translate(-19960,-11920)"><tspan class="TextParagraph" font-family="Liberation Sans, sans-serif" font-size="353px" font-weight="400"><tspan class="TextPosition" x="19960" y="11920"><tspan fill="rgb(0,0,0)" stroke="none">2002</tspan></tspan></tspan></text>
 <text class="TextShape" transform="translate(20783,11920) rotate(-44.9) translate(-20783,-11920)"><tspan class="TextParagraph" font-family="Liberation Sans, sans-serif" font-size="353px" font-weight="400"><tspan class="TextPosition" x="20783" y="11920"><tspan fill="rgb(0,0,0)" stroke="none">2004</tspan></tspan></tspan></text>
 <text class="TextShape" transform="translate(21606,11920) rotate(-44.9) translate(-21606,-11920)"><tspan class="TextParagraph" font-family="Liberation Sans, sans-serif" font-size="353px" font-weight="400"><tspan class="TextPosition" x="21606" y="11920"><tspan fill="rgb(0,0,0)" stroke="none">2006</tspan></tspan></tspan></text>
 <text class="TextShape" transform="translate(22430,11920) rotate(-44.9) translate(-22430,-11920)"><tspan class="TextParagraph" font-family="Liberation Sans, sans-serif" font-size="353px" font-weight="400"><tspan class="TextPosition" x="22430" y="11920"><tspan fill="rgb(0,0,0)" stroke="none">2008</tspan></tspan></tspan></text>
 <text class="TextShape" transform="translate(23253,11920) rotate(-44.9) translate(-23253,-11920)"><tspan class="TextParagraph" font-family="Liberation Sans, sans-serif" font-size="353px" font-weight="400"><tspan class="TextPosition" x="23253" y="11920"><tspan fill="rgb(0,0,0)" stroke="none">2010</tspan></tspan></tspan></text>
 <text class="TextShape" transform="translate(24076,11920) rotate(-44.9) translate(-24076,-11920)"><tspan class="TextParagraph" font-family="Liberation Sans, sans-serif" font-size="353px" font-weight="400"><tspan class="TextPosition" x="24076" y="11920"><tspan fill="rgb(0,0,0)" stroke="none">2012</tspan></tspan></tspan></text>
 <text class="TextShape" transform="translate(24900,11920) rotate(-44.9) translate(-24900,-11920)"><tspan class="TextParagraph" font-family="Liberation Sans, sans-serif" font-size="353px" font-weight="400"><tspan class="TextPosition" x="24900" y="11920"><tspan fill="rgb(0,0,0)" stroke="none">2014</tspan></tspan></tspan></text>
 <text class="TextShape" transform="translate(25723,11920) rotate(-44.9) translate(-25723,-11920)"><tspan class="TextParagraph" font-family="Liberation Sans, sans-serif" font-size="353px" font-weight="400"><tspan class="TextPosition" x="25723" y="11920"><tspan fill="rgb(0,0,0)" stroke="none">2016</tspan></tspan></tspan></text>
 <text class="TextShape"><tspan class="TextParagraph" font-family="Liberation Sans, sans-serif" font-size="353px" font-weight="400"><tspan class="TextPosition" x="1575" y="11009"><tspan fill="rgb(0,0,0)" stroke="none">0.0</tspan></tspan></tspan></text>
 <text class="TextShape"><tspan class="TextParagraph" font-family="Liberation Sans, sans-serif" font-size="353px" font-weight="400"><tspan class="TextPosition" x="1575" y="9795"><tspan fill="rgb(0,0,0)" stroke="none">2.0</tspan></tspan></tspan></text>
 <text class="TextShape"><tspan class="TextParagraph" font-family="Liberation Sans, sans-serif" font-size="353px" font-weight="400"><tspan class="TextPosition" x="1575" y="8581"><tspan fill="rgb(0,0,0)" stroke="none">4.0</tspan></tspan></tspan></text>
 <text class="TextShape"><tspan class="TextParagraph" font-family="Liberation Sans, sans-serif" font-size="353px" font-weight="400"><tspan class="TextPosition" x="1575" y="7367"><tspan fill="rgb(0,0,0)" stroke="none">6.0</tspan></tspan></tspan></text>
 <text class="TextShape"><tspan class="TextParagraph" font-family="Liberation Sans, sans-serif" font-size="353px" font-weight="400"><tspan class="TextPosition" x="1575" y="6153"><tspan fill="rgb(0,0,0)" stroke="none">8.0</tspan></tspan></tspan></text>
 <text class="TextShape"><tspan class="TextParagraph" font-family="Liberation Sans, sans-serif" font-size="353px" font-weight="400"><tspan class="TextPosition" x="1378" y="4939"><tspan fill="rgb(0,0,0)" stroke="none">10.0</tspan></tspan></tspan></text>
 <text class="TextShape"><tspan class="TextParagraph" font-family="Liberation Sans, sans-serif" font-size="353px" font-weight="400"><tspan class="TextPosition" x="1378" y="3725"><tspan fill="rgb(0,0,0)" stroke="none">12.0</tspan></tspan></tspan></text>
 <text class="TextShape"><tspan class="TextParagraph" font-family="Liberation Sans, sans-serif" font-size="353px" font-weight="400"><tspan class="TextPosition" x="1378" y="2511"><tspan fill="rgb(0,0,0)" stroke="none">14.0</tspan></tspan></tspan></text>
 <text class="TextShape"><tspan class="TextParagraph" font-family="Liberation Sans, sans-serif" font-size="353px" font-weight="400"><tspan class="TextPosition" x="26855" y="11009"><tspan fill="rgb(0,0,0)" stroke="none">0.0</tspan></tspan></tspan></text>
 <text class="TextShape"><tspan class="TextParagraph" font-family="Liberation Sans, sans-serif" font-size="353px" font-weight="400"><tspan class="TextPosition" x="26855" y="9795"><tspan fill="rgb(0,0,0)" stroke="none">2.0</tspan></tspan></tspan></text>
 <text class="TextShape"><tspan class="TextParagraph" font-family="Liberation Sans, sans-serif" font-size="353px" font-weight="400"><tspan class="TextPosition" x="26855" y="8581"><tspan fill="rgb(0,0,0)" stroke="none">4.0</tspan></tspan></tspan></text>
 <text class="TextShape"><tspan class="TextParagraph" font-family="Liberation Sans, sans-serif" font-size="353px" font-weight="400"><tspan class="TextPosition" x="26855" y="7367"><tspan fill="rgb(0,0,0)" stroke="none">6.0</tspan></tspan></tspan></text>
 <text class="TextShape"><tspan class="TextParagraph" font-family="Liberation Sans, sans-serif" font-size="353px" font-weight="400"><tspan class="TextPosition" x="26855" y="6153"><tspan fill="rgb(0,0,0)" stroke="none">8.0</tspan></tspan></tspan></text>
 <text class="TextShape"><tspan class="TextParagraph" font-family="Liberation Sans, sans-serif" font-size="353px" font-weight="400"><tspan class="TextPosition" x="26855" y="4939"><tspan fill="rgb(0,0,0)" stroke="none">10.0</tspan></tspan></tspan></text>
 <text class="TextShape"><tspan class="TextParagraph" font-family="Liberation Sans, sans-serif" font-size="353px" font-weight="400"><tspan class="TextPosition" x="26855" y="3725"><tspan fill="rgb(0,0,0)" stroke="none">12.0</tspan></tspan></tspan></text>
 <text class="TextShape"><tspan class="TextParagraph" font-family="Liberation Sans, sans-serif" font-size="353px" font-weight="400"><tspan class="TextPosition" x="26855" y="2511"><tspan fill="rgb(0,0,0)" stroke="none">14.0</tspan></tspan></tspan></text>
 <text class="TextShape"><tspan class="TextParagraph" font-family="Liberation Sans, sans-serif" font-size="459px" font-weight="400"><tspan class="TextPosition" x="11129" y="954"><tspan fill="rgb(0,0,0)" stroke="none">Average Annual Inflation Rate</tspan></tspan></tspan></text>
 <text class="TextShape"><tspan class="TextParagraph" font-family="Liberation Sans, sans-serif" font-size="388px" font-weight="400"><tspan class="TextPosition" x="13246" y="1915"><tspan fill="rgb(0,0,0)" stroke="none">1958-2017</tspan></tspan></tspan></text>
 <text class="TextShape"><tspan class="TextParagraph" font-family="Liberation Sans, sans-serif" font-size="318px" font-weight="400"><tspan class="TextPosition" x="11922" y="12831"><tspan fill="rgb(0,0,0)" stroke="none">Source: US Bureau of Labor Statistics</tspan></tspan></tspan></text>
 <text class="TextShape" transform="translate(842,8413) rotate(-90) translate(-842,-8413)"><tspan class="TextParagraph" font-family="Liberation Sans, sans-serif" font-size="318px" font-weight="400"><tspan class="TextPosition" x="842" y="8413"><tspan fill="rgb(0,0,0)" stroke="none">% Inflation Rate</tspan></tspan></tspan></text>
</svg>