<?xml version="1.0" encoding="UTF-8"?>
<!DOCTYPE svg PUBLIC "-//W3C//DTD SVG 1.1//EN" "http://www.w3.org/Graphics/SVG/1.1/DTD/svg11.dtd">
<svg width="283mm" height="134mm" viewBox="0 0 28300 13400" version="1.1" xmlns="http://www.w3.org/2000/svg" stroke-width="28.222" stroke-linejoin="round" xml:space="preserve">
 <path fill="rgb(255,255,255)" stroke="none" d="M 14156,13416 L 0,13416 0,-10 28311,-10 28311,13416 14156,13416 Z"/>
 <path fill="none" stroke="rgb(179,179,179)" stroke-linejoin="round" d="M 14659,11524 L 2319,11524 2319,2584 26999,2584 26999,11524 14659,11524 Z"/>
 <path fill="none" stroke="rgb(179,179,179)" stroke-linejoin="round" d="M 26999,11523 L 2319,11523"/>
 <path fill="none" stroke="rgb(179,179,179)" stroke-linejoin="round" d="M 26999,10032 L 2319,10032"/>
 <path fill="none" stroke="rgb(179,179,179)" stroke-linejoin="round" d="M 26999,8542 L 2319,8542"/>
 <path fill="none" stroke="rgb(179,179,179)" stroke-linejoin="round" d="M 26999,7052 L 2319,7052"/>
 <path fill="none" stroke="rgb(179,179,179)" stroke-linejoin="round" d="M 26999,5563 L 2319,5563"/>
 <path fill="none" stroke="rgb(179,179,179)" stroke-linejoin="round" d="M 26999,4073 L 2319,4073"/>
 <path fill="none" stroke="rgb(179,179,179)" stroke-linejoin="round" d="M 26999,2583 L 2319,2583"/>
 <path fill="none" stroke="rgb(179,179,179)" stroke-linejoin="round" d="M 2319,11673 L 2319,11523"/>
 <path fill="none" stroke="rgb(179,179,179)" stroke-linejoin="round" d="M 2319,11673 L 2319,11523"/>
 <path fill="none" stroke="rgb(179,179,179)" stroke-linejoin="round" d="M 3770,11673 L 3770,11523"/>
 <path fill="none" stroke="rgb(179,179,179)" stroke-linejoin="round" d="M 3770,11673 L 3770,11523"/>
 <path fill="none" stroke="rgb(179,179,179)" stroke-linejoin="round" d="M 5222,11673 L 5222,11523"/>
 <path fill="none" stroke="rgb(179,179,179)" stroke-linejoin="round" d="M 5222,11673 L 5222,11523"/>
 <path fill="none" stroke="rgb(179,179,179)" stroke-linejoin="round" d="M 6674,11673 L 6674,11523"/>
 <path fill="none" stroke="rgb(179,179,179)" stroke-linejoin="round" d="M 6674,11673 L 6674,11523"/>
 <path fill="none" stroke="rgb(179,179,179)" stroke-linejoin="round" d="M 8126,11673 L 8126,11523"/>
 <path fill="none" stroke="rgb(179,179,179)" stroke-linejoin="round" d="M 8126,11673 L 8126,11523"/>
 <path fill="none" stroke="rgb(179,179,179)" stroke-linejoin="round" d="M 9578,11673 L 9578,11523"/>
 <path fill="none" stroke="rgb(179,179,179)" stroke-linejoin="round" d="M 9578,11673 L 9578,11523"/>
 <path fill="none" stroke="rgb(179,179,179)" stroke-linejoin="round" d="M 11029,11673 L 11029,11523"/>
 <path fill="none" stroke="rgb(179,179,179)" stroke-linejoin="round" d="M 11029,11673 L 11029,11523"/>
 <path fill="none" stroke="rgb(179,179,179)" stroke-linejoin="round" d="M 12481,11673 L 12481,11523"/>
 <path fill="none" stroke="rgb(179,179,179)" stroke-linejoin="round" d="M 12481,11673 L 12481,11523"/>
 <path fill="none" stroke="rgb(179,179,179)" stroke-linejoin="round" d="M 13933,11673 L 13933,11523"/>
 <path fill="none" stroke="rgb(179,179,179)" stroke-linejoin="round" d="M 13933,11673 L 13933,11523"/>
 <path fill="none" stroke="rgb(179,179,179)" stroke-linejoin="round" d="M 15384,11673 L 15384,11523"/>
 <path fill="none" stroke="rgb(179,179,179)" stroke-linejoin="round" d="M 15384,11673 L 15384,11523"/>
 <path fill="none" stroke="rgb(179,179,179)" stroke-linejoin="round" d="M 16836,11673 L 16836,11523"/>
 <path fill="none" stroke="rgb(179,179,179)" stroke-linejoin="round" d="M 16836,11673 L 16836,11523"/>
 <path fill="none" stroke="rgb(179,179,179)" stroke-linejoin="round" d="M 18288,11673 L 18288,11523"/>
 <path fill="none" stroke="rgb(179,179,179)" stroke-linejoin="round" d="M 18288,11673 L 18288,11523"/>
 <path fill="none" stroke="rgb(179,179,179)" stroke-linejoin="round" d="M 19739,11673 L 19739,11523"/>
 <path fill="none" stroke="rgb(179,179,179)" stroke-linejoin="round" d="M 19739,11673 L 19739,11523"/>
 <path fill="none" stroke="rgb(179,179,179)" stroke-linejoin="round" d="M 21191,11673 L 21191,11523"/>
 <path fill="none" stroke="rgb(179,179,179)" stroke-linejoin="round" d="M 21191,11673 L 21191,11523"/>
 <path fill="none" stroke="rgb(179,179,179)" stroke-linejoin="round" d="M 22643,11673 L 22643,11523"/>
 <path fill="none" stroke="rgb(179,179,179)" stroke-linejoin="round" d="M 22643,11673 L 22643,11523"/>
 <path fill="none" stroke="rgb(179,179,179)" stroke-linejoin="round" d="M 24095,11673 L 24095,11523"/>
 <path fill="none" stroke="rgb(179,179,179)" stroke-linejoin="round" d="M 24095,11673 L 24095,11523"/>
 <path fill="none" stroke="rgb(179,179,179)" stroke-linejoin="round" d="M 25547,11673 L 25547,11523"/>
 <path fill="none" stroke="rgb(179,179,179)" stroke-linejoin="round" d="M 25547,11673 L 25547,11523"/>
 <path fill="none" stroke="rgb(179,179,179)" stroke-linejoin="round" d="M 26999,11673 L 26999,11523"/>
 <path fill="none" stroke="rgb(179,179,179)" stroke-linejoin="round" d="M 26999,11673 L 26999,11523"/>
 <path fill="none" stroke="rgb(179,179,179)" stroke-linejoin="round" d="M 2319,11523 L 26999,11523"/>
 <path fill="none" stroke="rgb(179,179,179)" stroke-linejoin="round" d="M 2169,11523 L 2319,11523"/>
 <path fill="none" stroke="rgb(179,179,179)" stroke-linejoin="round" d="M 2169,11523 L 2319,11523"/>
 <path fill="none" stroke="rgb(179,179,179)" stroke-linejoin="round" d="M 2169,10032 L 2319,10032"/>
 <path fill="none" stroke="rgb(179,179,179)" stroke-linejoin="round" d="M 2169,10032 L 2319,10032"/>
 <path fill="none" stroke="rgb(179,179,179)" stroke-linejoin="round" d="M 2169,8542 L 2319,8542"/>
 <path fill="none" stroke="rgb(179,179,179)" stroke-linejoin="round" d="M 2169,8542 L 2319,8542"/>
 <path fill="none" stroke="rgb(179,179,179)" stroke-linejoin="round" d="M 2169,7052 L 2319,7052"/>
 <path fill="none" stroke="rgb(179,179,179)" stroke-linejoin="round" d="M 2169,7052 L 2319,7052"/>
 <path fill="none" stroke="rgb(179,179,179)" stroke-linejoin="round" d="M 2169,5563 L 2319,5563"/>
 <path fill="none" stroke="rgb(179,179,179)" stroke-linejoin="round" d="M 2169,5563 L 2319,5563"/>
 <path fill="none" stroke="rgb(179,179,179)" stroke-linejoin="round" d="M 2169,4073 L 2319,4073"/>
 <path fill="none" stroke="rgb(179,179,179)" stroke-linejoin="round" d="M 2169,4073 L 2319,4073"/>
 <path fill="none" stroke="rgb(179,179,179)" stroke-linejoin="round" d="M 2169,2583 L 2319,2583"/>
 <path fill="none" stroke="rgb(179,179,179)" stroke-linejoin="round" d="M 2169,2583 L 2319,2583"/>
 <path fill="none" stroke="rgb(179,179,179)" stroke-linejoin="round" d="M 2319,11523 L 2319,2583"/>
 <path fill="none" stroke="rgb(179,179,179)" stroke-linejoin="round" d="M 27149,11523 L 26999,11523"/>
 <path fill="none" stroke="rgb(179,179,179)" stroke-linejoin="round" d="M 27149,11523 L 26999,11523"/>
 <path fill="none" stroke="rgb(179,179,179)" stroke-linejoin="round" d="M 27149,10032 L 26999,10032"/>
 <path fill="none" stroke="rgb(179,179,179)" stroke-linejoin="round" d="M 27149,10032 L 26999,10032"/>
 <path fill="none" stroke="rgb(179,179,179)" stroke-linejoin="round" d="M 27149,8542 L 26999,8542"/>
 <path fill="none" stroke="rgb(179,179,179)" stroke-linejoin="round" d="M 27149,8542 L 26999,8542"/>
 <path fill="none" stroke="rgb(179,179,179)" stroke-linejoin="round" d="M 27149,7052 L 26999,7052"/>
 <path fill="none" stroke="rgb(179,179,179)" stroke-linejoin="round" d="M 27149,7052 L 26999,7052"/>
 <path fill="none" stroke="rgb(179,179,179)" stroke-linejoin="round" d="M 27149,5563 L 26999,5563"/>
 <path fill="none" stroke="rgb(179,179,179)" stroke-linejoin="round" d="M 27149,5563 L 26999,5563"/>
 <path fill="none" stroke="rgb(179,179,179)" stroke-linejoin="round" d="M 27149,4073 L 26999,4073"/>
 <path fill="none" stroke="rgb(179,179,179)" stroke-linejoin="round" d="M 27149,4073 L 26999,4073"/>
 <path fill="none" stroke="rgb(179,179,179)" stroke-linejoin="round" d="M 27149,2583 L 26999,2583"/>
 <path fill="none" stroke="rgb(179,179,179)" stroke-linejoin="round" d="M 27149,2583 L 26999,2583"/>
 <path fill="none" stroke="rgb(179,179,179)" stroke-linejoin="round" d="M 26999,11523 L 26999,2583"/>
 <path fill="none" stroke="rgb(255,66,14)" stroke-width="80" stroke-linejoin="round" d="M 2319,4371 L 2464,4304 2609,4238 2754,4173 2899,4110 3044,4047 3190,3987 3335,3929 3480,3874 3625,3823 3770,3775 3916,3731 4061,3697 4206,3678 4351,3678 4496,3702 4641,3756 4787,3845 4932,3973 5077,4147 5222,4371 5367,4647 5513,4964 5658,5309 5803,5669 5948,6028 6093,6375 6238,6694 6384,6971 6529,7195 6674,7350 6819,7427 6964,7433 7110,7377 7255,7271 7400,7125 7545,6949 7690,6754 7835,6551 7981,6349 8126,6159 8271,5989 8416,5840 8561,5706 8707,5586 8852,5476 8997,5373 9142,5274 9287,5175 9432,5074 9578,4967 9723,4852 9868,4733 10013,4612 10158,4495 10304,4384 10449,4285 10594,4200 10739,4133 10884,4090 11029,4073 11175,4085 11320,4122 11465,4178 11610,4249 11755,4329 11901,4412 12046,4493 12191,4566 12336,4627 12481,4669 12626,4689 12772,4690 12917,4679 13062,4659 13207,4637 13352,4617 13498,4605 13643,4606 13788,4626 13933,4669 14078,4740 14222,4838 14368,4963 14513,5113 14658,5286 14803,5481 14948,5697 15094,5933 15239,6187 15384,6457 15529,6740 15674,7031 15819,7320 15965,7598 16110,7856 16255,8085 16400,8278 16545,8424 16691,8515 16836,8542 16981,8500 17126,8395 17271,8237 17416,8036 17562,7801 17707,7542 17852,7268 17997,6989 18142,6715 18288,6457 18433,6220 18578,6008 18723,5822 18868,5661 19013,5526 19159,5418 19304,5337 19449,5285 19594,5260 19739,5265 19885,5298 20030,5356 20175,5434 20320,5527 20465,5632 20610,5743 20756,5856 20901,5966 21046,6068 21191,6159 21336,6234 21482,6294 21627,6341 21772,6377 21917,6404 22062,6423 22207,6436 22353,6444 22498,6451 22643,6457 22788,6463 22933,6469 23079,6470 23224,6465 23369,6451 23514,6426 23659,6386 23804,6331 23950,6256 24095,6159 24240,6040 24385,5903 24530,5755 24676,5603 24821,5453 24966,5311 25111,5186 25256,5082 25401,5007 25547,4967 25692,4967 25837,5005 25982,5076 26127,5176 26273,5302 26418,5448 26563,5611 26708,5787 26853,5971 26999,6159"/>
 <text class="TextShape"><tspan class="TextParagraph" font-family="Liberation Sans" font-size="353px" font-weight="400"><tspan class="TextPosition" x="1924" y="12098"><tspan fill="rgb(0,0,0)" stroke="none">2000</tspan></tspan></tspan></text>
 <text class="TextShape"><tspan class="TextParagraph" font-family="Liberation Sans" font-size="353px" font-weight="400"><tspan class="TextPosition" x="3375" y="12098"><tspan fill="rgb(0,0,0)" stroke="none">2001</tspan></tspan></tspan></text>
 <text class="TextShape"><tspan class="TextParagraph" font-family="Liberation Sans" font-size="353px" font-weight="400"><tspan class="TextPosition" x="4827" y="12098"><tspan fill="rgb(0,0,0)" stroke="none">2002</tspan></tspan></tspan></text>
 <text class="TextShape"><tspan class="TextParagraph" font-family="Liberation Sans" font-size="353px" font-weight="400"><tspan class="TextPosition" x="6279" y="12098"><tspan fill="rgb(0,0,0)" stroke="none">2003</tspan></tspan></tspan></text>
 <text class="TextShape"><tspan class="TextParagraph" font-family="Liberation Sans" font-size="353px" font-weight="400"><tspan class="TextPosition" x="7731" y="12098"><tspan fill="rgb(0,0,0)" stroke="none">2004</tspan></tspan></tspan></text>
 <text class="TextShape"><tspan class="TextParagraph" font-family="Liberation Sans" font-size="353px" font-weight="400"><tspan class="TextPosition" x="9183" y="12098"><tspan fill="rgb(0,0,0)" stroke="none">2005</tspan></tspan></tspan></text>
 <text class="TextShape"><tspan class="TextParagraph" font-family="Liberation Sans" font-size="353px" font-weight="400"><tspan class="TextPosition" x="10634" y="12098"><tspan fill="rgb(0,0,0)" stroke="none">2006</tspan></tspan></tspan></text>
 <text class="TextShape"><tspan class="TextParagraph" font-family="Liberation Sans" font-size="353px" font-weight="400"><tspan class="TextPosition" x="12086" y="12098"><tspan fill="rgb(0,0,0)" stroke="none">2007</tspan></tspan></tspan></text>
 <text class="TextShape"><tspan class="TextParagraph" font-family="Liberation Sans" font-size="353px" font-weight="400"><tspan class="TextPosition" x="13538" y="12098"><tspan fill="rgb(0,0,0)" stroke="none">2008</tspan></tspan></tspan></text>
 <text class="TextShape"><tspan class="TextParagraph" font-family="Liberation Sans" font-size="353px" font-weight="400"><tspan class="TextPosition" x="14990" y="12098"><tspan fill="rgb(0,0,0)" stroke="none">2009</tspan></tspan></tspan></text>
 <text class="TextShape"><tspan class="TextParagraph" font-family="Liberation Sans" font-size="353px" font-weight="400"><tspan class="TextPosition" x="16442" y="12098"><tspan fill="rgb(0,0,0)" stroke="none">2010</tspan></tspan></tspan></text>
 <text class="TextShape"><tspan class="TextParagraph" font-family="Liberation Sans" font-size="353px" font-weight="400"><tspan class="TextPosition" x="17894" y="12098"><tspan fill="rgb(0,0,0)" stroke="none">2011</tspan></tspan></tspan></text>
 <text class="TextShape"><tspan class="TextParagraph" font-family="Liberation Sans" font-size="353px" font-weight="400"><tspan class="TextPosition" x="19345" y="12098"><tspan fill="rgb(0,0,0)" stroke="none">2012</tspan></tspan></tspan></text>
 <text class="TextShape"><tspan class="TextParagraph" font-family="Liberation Sans" font-size="353px" font-weight="400"><tspan class="TextPosition" x="20797" y="12098"><tspan fill="rgb(0,0,0)" stroke="none">2013</tspan></tspan></tspan></text>
 <text class="TextShape"><tspan class="TextParagraph" font-family="Liberation Sans" font-size="353px" font-weight="400"><tspan class="TextPosition" x="22249" y="12098"><tspan fill="rgb(0,0,0)" stroke="none">2014</tspan></tspan></tspan></text>
 <text class="TextShape"><tspan class="TextParagraph" font-family="Liberation Sans" font-size="353px" font-weight="400"><tspan class="TextPosition" x="23701" y="12098"><tspan fill="rgb(0,0,0)" stroke="none">2015</tspan></tspan></tspan></text>
 <text class="TextShape"><tspan class="TextParagraph" font-family="Liberation Sans" font-size="353px" font-weight="400"><tspan class="TextPosition" x="25153" y="12098"><tspan fill="rgb(0,0,0)" stroke="none">2016</tspan></tspan></tspan></text>
 <text class="TextShape"><tspan class="TextParagraph" font-family="Liberation Sans" font-size="353px" font-weight="400"><tspan class="TextPosition" x="26605" y="12098"><tspan fill="rgb(0,0,0)" stroke="none">2017</tspan></tspan></tspan></text>
 <text class="TextShape"><tspan class="TextParagraph" font-family="Liberation Sans" font-size="353px" font-weight="400"><tspan class="TextPosition" x="1575" y="11651"><tspan fill="rgb(0,0,0)" stroke="none">0.0</tspan></tspan></tspan></text>
 <text class="TextShape"><tspan class="TextParagraph" font-family="Liberation Sans" font-size="353px" font-weight="400"><tspan class="TextPosition" x="1575" y="10160"><tspan fill="rgb(0,0,0)" stroke="none">0.5</tspan></tspan></tspan></text>
 <text class="TextShape"><tspan class="TextParagraph" font-family="Liberation Sans" font-size="353px" font-weight="400"><tspan class="TextPosition" x="1575" y="8670"><tspan fill="rgb(0,0,0)" stroke="none">1.0</tspan></tspan></tspan></text>
 <text class="TextShape"><tspan class="TextParagraph" font-family="Liberation Sans" font-size="353px" font-weight="400"><tspan class="TextPosition" x="1575" y="7180"><tspan fill="rgb(0,0,0)" stroke="none">1.5</tspan></tspan></tspan></text>
 <text class="TextShape"><tspan class="TextParagraph" font-family="Liberation Sans" font-size="353px" font-weight="400"><tspan class="TextPosition" x="1575" y="5690"><tspan fill="rgb(0,0,0)" stroke="none">2.0</tspan></tspan></tspan></text>
 <text class="TextShape"><tspan class="TextParagraph" font-family="Liberation Sans" font-size="353px" font-weight="400"><tspan class="TextPosition" x="1575" y="4200"><tspan fill="rgb(0,0,0)" stroke="none">2.5</tspan></tspan></tspan></text>
 <text class="TextShape"><tspan class="TextParagraph" font-family="Liberation Sans" font-size="353px" font-weight="400"><tspan class="TextPosition" x="1575" y="2710"><tspan fill="rgb(0,0,0)" stroke="none">3.0</tspan></tspan></tspan></text>
 <text class="TextShape"><tspan class="TextParagraph" font-family="Liberation Sans" font-size="353px" font-weight="400"><tspan class="TextPosition" x="27249" y="11651"><tspan fill="rgb(0,0,0)" stroke="none">0.0</tspan></tspan></tspan></text>
 <text class="TextShape"><tspan class="TextParagraph" font-family="Liberation Sans" font-size="353px" font-weight="400"><tspan class="TextPosition" x="27249" y="10160"><tspan fill="rgb(0,0,0)" stroke="none">0.5</tspan></tspan></tspan></text>
 <text class="TextShape"><tspan class="TextParagraph" font-family="Liberation Sans" font-size="353px" font-weight="400"><tspan class="TextPosition" x="27249" y="8670"><tspan fill="rgb(0,0,0)" stroke="none">1.0</tspan></tspan></tspan></text>
 <text class="TextShape"><tspan class="TextParagraph" font-family="Liberation Sans" font-size="353px" font-weight="400"><tspan class="TextPosition" x="27249" y="7180"><tspan fill="rgb(0,0,0)" stroke="none">1.5</tspan></tspan></tspan></text>
 <text class="TextShape"><tspan class="TextParagraph" font-family="Liberation Sans" font-size="353px" font-weight="400"><tspan class="TextPosition" x="27249" y="5690"><tspan fill="rgb(0,0,0)" stroke="none">2.0</tspan></tspan></tspan></text>
 <text class="TextShape"><tspan class="TextParagraph" font-family="Liberation Sans" font-size="353px" font-weight="400"><tspan class="TextPosition" x="27249" y="4200"><tspan fill="rgb(0,0,0)" stroke="none">2.5</tspan></tspan></tspan></text>
 <text class="TextShape"><tspan class="TextParagraph" font-family="Liberation Sans" font-size="353px" font-weight="400"><tspan class="TextPosition" x="27249" y="2710"><tspan fill="rgb(0,0,0)" stroke="none">3.0</tspan></tspan></tspan></text>
 <text class="TextShape"><tspan class="TextParagraph" font-family="Liberation Sans" font-size="459px" font-weight="400"><tspan class="TextPosition" x="11129" y="954"><tspan fill="rgb(0,0,0)" stroke="none">Average Annual Inflation Rate</tspan></tspan></tspan></text>
 <text class="TextShape"><tspan class="TextParagraph" font-family="Liberation Sans" font-size="388px" font-weight="400"><tspan class="TextPosition" x="13246" y="1915"><tspan fill="rgb(0,0,0)" stroke="none">2000-2017</tspan></tspan></tspan></text>
 <text class="TextShape"><tspan class="TextParagraph" font-family="Liberation Sans" font-size="318px" font-weight="400"><tspan class="TextPosition" x="11922" y="12831"><tspan fill="rgb(0,0,0)" stroke="none">Source: US Bureau of Labor Statistics</tspan></tspan></tspan></text>
 <text class="TextShape" transform="translate(842,8413) rotate(-90) translate(-842,-8413)"><tspan class="TextParagraph" font-family="Liberation Sans" font-size="318px" font-weight="400"><tspan class="TextPosition" x="842" y="8413"><tspan fill="rgb(0,0,0)" stroke="none">% Inflation Rate</tspan></tspan></tspan></text>
</svg>